<svg xmlns="http://www.w3.org/2000/svg" viewBox="0 0 453.833 118.133"><g fill="#FA0F00"><path d="M84.13 0h49.33v118.11zM49.37 0H0v118.11zM66.75 43.53l31.43 74.58h-20.6l-9.4-23.75h-23zM195.82 78.78l-4.89 15.08c-.2.51-.51.81-1.12.81h-11.82c-.71 0-.92-.41-.82-1.02l20.38-58.8c.41-1.12.81-2.34 1.02-6.22 0-.41.31-.71.61-.71h16.3c.51 0 .71.1.81.61l23.13 65.21c.2.51.1.92-.51.92h-13.25c-.61 0-.92-.2-1.12-.71l-5.2-15.18h-23.52zm19.76-12.74c-2.04-6.73-6.11-19.06-8.05-26.29h-.1c-1.63 6.83-5.3 18.04-7.95 26.29h16.1zM241.36 69.81c0-14.57 10.9-26.8 29.55-26.8.82 0 1.83.1 3.36.2V23.14c0-.51.31-.71.71-.71h12.84c.51 0 .61.2.61.61v60.22c0 2.34.1 5.4.41 7.44 0 .51-.1.71-.71.92-7.03 2.96-13.76 4.08-20.07 4.08-15.08-.01-26.7-8.57-26.7-25.89zm32.92-14.47c-1.02-.41-2.34-.51-3.77-.51-7.85 0-14.57 4.79-14.57 14.27 0 10.09 5.81 14.47 13.55 14.47 1.73 0 3.36-.1 4.79-.61V55.34zM346.73 69.09c0 16-10.39 26.6-25.07 26.6-17.42 0-25.17-13.15-25.17-26.29 0-14.47 9.68-26.39 25.37-26.39 16.41 0 24.87 12.33 24.87 26.08zm-35.87.11c0 8.97 4.18 14.67 11 14.67 5.91 0 10.39-5.09 10.39-14.47 0-7.95-3.26-14.57-11-14.57-5.91 0-10.39 5.3-10.39 14.37zM367.92 22.43c.81 0 1.02.1 1.02.81v20.89c2.65-.71 5.5-1.12 8.56-1.12 14.98 0 24.46 10.6 24.46 24.25 0 19.06-15.08 28.43-30.57 28.43-5.4 0-10.8-.71-16-2.34-.31-.1-.61-.61-.61-1.02V23.14c0-.51.2-.71.71-.71h12.43zm7.03 32.6c-3.26 0-4.69.51-6.01.81v27.61c1.22.31 2.55.41 3.77.41 7.74 0 14.78-4.69 14.78-15.28-.01-9.27-5.41-13.55-12.54-13.55zM422.13 73.07c.51 5.81 4.59 10.6 14.57 10.6 4.58 0 8.66-.71 12.53-2.34.31-.2.61-.1.61.51v9.68c0 .71-.2 1.02-.71 1.22-4.08 1.94-8.56 2.96-15.59 2.96-19.16 0-25.88-13.15-25.88-25.78 0-14.06 8.66-26.9 24.66-26.9 15.39 0 21.5 11.92 21.5 22.01 0 3.16-.2 5.71-.51 6.83-.1.51-.31.71-.82.81-1.32.2-5.2.41-10.5.41h-19.86zm13.24-9.89c3.26 0 4.69-.1 5.09-.2v-.71c0-2.45-1.94-8.05-8.66-8.05-6.42 0-9.17 4.79-9.78 8.97h13.35z"/></g></svg>